<?xml version="1.0" encoding="utf-8"?><svg version="1.1" id="Layer_1" xmlns="http://www.w3.org/2000/svg" xmlns:xlink="http://www.w3.org/1999/xlink" x="0px" y="0px" viewBox="0 0 116.95 122.88" style="enable-background:new 0 0 116.95 122.88" xml:space="preserve"><style type="text/css">.st0{fill-rule:evenodd;clip-rule:evenodd;}</style><g><path class="st0" d="M82.44,47.28c12.83,8.13,24.41,11.98,34.36,11.07c1.74,35.13-11.24,55.87-34.23,64.53 c-22.2-8.1-35.33-27.96-34.36-65.06C59.89,58.43,71.34,55.9,82.44,47.28L82.44,47.28L82.44,47.28z M44.15,95.34 c-7.1-5.94-12.77-11.96-16.97-18.05l-13.85,0c1.33,1.8,2.79,3.49,4.38,5.08l0.01,0.01v0c2.06,2.07,4.3,3.91,6.72,5.53 c2.41,1.62,5.02,3.03,7.83,4.23c0.04,0.02,0.07,0.03,0.1,0.05c2.72,1.16,5.55,2.03,8.49,2.61C41.94,95.02,43.04,95.2,44.15,95.34 L44.15,95.34L44.15,95.34z M10.47,72.9h13.95c-3.89-6.79-5.97-13.68-6.22-20.66H4.44c0.11,2.39,0.39,4.72,0.84,7 c0.59,2.97,1.48,5.84,2.66,8.59l0,0C8.7,69.59,9.54,71.28,10.47,72.9L10.47,72.9L10.47,72.9z M4.44,47.85h13.84 c0.51-6.84,2.78-13.73,6.85-20.66H10.47c-0.93,1.61-1.77,3.31-2.53,5.08c-0.02,0.03-0.03,0.07-0.05,0.1 c-1.16,2.73-2.03,5.55-2.61,8.49C4.82,43.13,4.54,45.46,4.44,47.85L4.44,47.85L4.44,47.85z M13.33,22.8h14.61 c4.16-6,9.66-12.03,16.53-18.09c-1.22,0.14-2.42,0.33-3.61,0.57c-2.97,0.59-5.84,1.48-8.59,2.66l0,0c-2.8,1.21-5.41,2.62-7.83,4.24 c-2.42,1.62-4.66,3.47-6.72,5.53l-0.01,0.01l0,0C16.11,19.3,14.65,21,13.33,22.8L13.33,22.8L13.33,22.8z M55.62,4.71 c6.86,6.07,12.37,12.1,16.53,18.09h14.61c-1.33-1.8-2.79-3.49-4.38-5.08l-0.01-0.01l0,0c-2.06-2.07-4.3-3.91-6.72-5.53 c-2.41-1.62-5.02-3.03-7.83-4.24c-0.04-0.01-0.07-0.03-0.1-0.05c-2.73-1.15-5.55-2.03-8.49-2.61C58.04,5.04,56.84,4.85,55.62,4.71 L55.62,4.71L55.62,4.71z M89.62,27.18H74.96c2.23,3.8,3.92,7.59,5.08,11.37c-1.27,0.92-2.53,1.77-3.81,2.57 c-1.24-4.6-3.37-9.25-6.4-13.94h-17.6l0,0v20.66h9.4c-7.61,2.34-15.32,3.03-23.11,2.62c-0.02,0.59-0.03,1.18-0.04,1.76H22.57 c0.28,6.94,2.61,13.83,6.95,20.66h9.93c0.18,1.49,0.38,2.95,0.61,4.39h-7.47c2.69,3.53,5.92,7.05,9.68,10.55 c1.16,4.36,2.58,8.39,4.24,12.13c-2.21-0.15-4.38-0.43-6.5-0.86c-3.2-0.64-6.32-1.6-9.35-2.89c-0.04-0.02-0.08-0.03-0.12-0.05 c-3.02-1.3-5.86-2.84-8.53-4.63c-2.66-1.78-5.12-3.81-7.38-6.08c-2.27-2.26-4.29-4.72-6.08-7.38c-1.79-2.67-3.33-5.51-4.63-8.53 l0,0l0-0.01c-1.31-3.06-2.29-6.21-2.94-9.46C0.33,56.84,0,53.49,0,50.04C0,46.6,0.33,43.25,0.98,40c0.64-3.2,1.6-6.32,2.89-9.34 c0.01-0.04,0.03-0.08,0.05-0.12c1.3-3.02,2.84-5.86,4.63-8.53c1.79-2.66,3.81-5.12,6.08-7.38c2.26-2.27,4.72-4.29,7.38-6.08 c2.67-1.79,5.51-3.33,8.53-4.63l0,0l0.01,0C33.6,2.6,36.75,1.63,40,0.98l0,0C43.25,0.32,46.6,0,50.04,0 c3.45,0,6.79,0.32,10.05,0.98c3.2,0.64,6.32,1.6,9.34,2.89c0.04,0.01,0.08,0.03,0.12,0.05c3.02,1.3,5.86,2.84,8.53,4.63 c2.66,1.79,5.12,3.81,7.38,6.08c2.27,2.26,4.29,4.72,6.08,7.38c1.79,2.67,3.33,5.51,4.63,8.53l0,0l0,0.01 c1.31,3.06,2.29,6.21,2.94,9.46c0.43,2.14,0.71,4.32,0.86,6.54c-1.51-0.61-3.04-1.28-4.58-2c-0.14-1.24-0.34-2.47-0.58-3.68 c-0.59-2.97-1.48-5.84-2.66-8.59l0,0C91.38,30.49,90.54,28.8,89.62,27.18L89.62,27.18L89.62,27.18z M52.24,7.55V22.8h14.52 C62.94,17.77,58.11,12.69,52.24,7.55L52.24,7.55L52.24,7.55z M47.85,47.85V27.18h-17.6c-4.5,6.99-7.02,13.88-7.59,20.66H47.85 L47.85,47.85L47.85,47.85z M47.85,22.8V7.55c-5.87,5.14-10.7,10.22-14.52,15.25H47.85L47.85,22.8L47.85,22.8z M82.71,59.3 c8.75,5.54,16.65,8.17,23.43,7.55c1.18,23.95-7.66,38.1-23.34,44c-0.1-0.04-0.2-0.07-0.29-0.11l0-51.29L82.71,59.3L82.71,59.3 L82.71,59.3z M82.45,51.62c11.35,7.2,21.61,10.6,30.41,9.8c1.54,31.09-9.95,49.46-30.29,57.12c-19.65-7.17-31.28-24.75-30.41-57.59 C62.49,61.49,72.63,59.25,82.45,51.62L82.45,51.62L82.45,51.62z"/></g></svg>